<svg version="1.1" id="Layer_1" xmlns="http://www.w3.org/2000/svg" xmlns:xlink="http://www.w3.org/1999/xlink" x="0px" y="0px"
	 width="100%" viewBox="0 0 225 225" xml:space="preserve">
<path fill="#FCFCFC" opacity="1.000000" stroke="none" 
	d="
M88.567215,180.146683 
	C81.791389,176.355362 77.557449,170.435669 72.482445,165.449951 
	C65.244553,158.339401 57.935081,151.283783 51.023571,143.862549 
	C35.471336,127.163345 34.811386,102.005379 49.865147,84.916664 
	C58.319530,75.319420 67.682190,66.516670 76.722031,57.442020 
	C93.281357,40.818928 109.890175,24.245041 126.509628,7.682016 
	C131.955399,2.254732 138.052826,1.804535 142.737442,6.346853 
	C147.530350,10.994170 147.237167,17.635532 141.915436,23.084869 
	C136.336533,28.797522 130.695648,34.449638 124.960358,40.436668 
	C124.882431,41.252075 124.872475,41.820999 124.542984,42.171909 
	C117.852913,49.296852 111.470406,56.741352 103.230133,62.763321 
	C102.936378,62.954895 102.994286,62.994305 102.985260,62.960464 
	C102.762360,63.213638 102.514603,63.468071 101.971344,63.667774 
	C101.705002,63.641094 101.605499,63.679855 101.552124,63.678703 
	C101.542877,63.895069 101.587006,64.112587 101.307495,64.408188 
	C89.546303,75.847008 77.857628,86.969002 66.754662,98.647827 
	C58.610882,107.213982 58.511189,119.685883 66.662247,128.443542 
	C77.522728,140.112259 89.081871,151.130707 100.557304,162.657501 
	C103.833290,166.622711 104.311028,171.468353 101.982872,175.151230 
	C98.896843,180.033020 94.582603,181.773193 88.567215,180.146683 
z"/>
<path fill="#B2B0AF" opacity="1.000000" stroke="none" 
	d="
M168.998352,124.897614 
	C148.543365,124.897530 128.587891,124.871964 108.632576,124.915436 
	C103.683289,124.926216 99.848129,122.990814 97.626114,118.592636 
	C95.579155,114.540955 96.118568,110.498177 98.939812,106.907120 
	C101.126068,104.124321 103.993011,102.936775 107.630920,102.949142 
	C132.907486,103.035118 158.184509,102.973457 183.461319,103.009613 
	C189.691498,103.018532 194.365067,107.381447 194.739304,113.315948 
	C195.100784,119.048088 190.134003,124.539452 183.963287,124.844460 
	C179.152374,125.082253 174.320496,124.895630 168.998352,124.897614 
z"/>
<path fill="#F49D1B" opacity="1.000000" stroke="none" 
	d="
M88.310242,180.198029 
	C99.358063,180.495804 104.645088,173.773605 100.842087,163.309372 
	C113.201042,168.857147 123.794044,166.630157 132.905991,156.168991 
	C137.158768,151.286484 141.967285,146.879929 146.617371,142.353683 
	C152.061096,137.054932 158.223175,136.751694 162.962479,141.407684 
	C167.593872,145.957657 167.419220,152.581879 162.342529,157.799774 
	C156.424957,163.881989 150.477142,169.941406 144.364746,175.826141 
	C129.124023,190.499161 106.744087,192.323547 88.310242,180.198029 
z"/>
<path fill="#F59E1B" opacity="1.000000" stroke="none" 
	d="
M103.335258,63.027058 
	C109.312263,54.946449 117.206055,48.410007 124.526245,40.879639 
	C132.433594,42.220879 138.728668,46.148930 144.192688,51.404785 
	C150.302429,57.281727 156.239807,63.340572 162.169342,69.401314 
	C167.389786,74.737297 167.601654,81.669579 162.821915,86.160751 
	C158.277908,90.430420 151.606125,89.873520 146.419800,84.735641 
	C141.341064,79.704346 136.164215,74.761597 131.283600,69.543213 
	C123.473930,61.193050 114.398659,58.915302 103.335258,63.027058 
z"/>
<path fill="#F59E1B" opacity="1.000000" stroke="none" 
	d="
M102.013031,63.747475 
	C101.937904,63.330742 102.170807,63.020393 102.689972,62.818336 
	C102.757843,63.235703 102.539444,63.544777 102.013031,63.747475 
z"/>
<path fill="#F59E1B" opacity="1.000000" stroke="none" 
	d="
M101.203796,64.469040 
	C100.862732,64.218109 100.912193,63.986111 101.315491,63.733917 
	C101.758377,63.963634 101.733368,64.221718 101.203796,64.469040 
z"/>
</svg>